<?xml version="1.0" standalone="no"?>
<!DOCTYPE svg PUBLIC "-//W3C//DTD SVG 20010904//EN"
 "http://www.w3.org/TR/2001/REC-SVG-20010904/DTD/svg10.dtd">
<svg version="1.0" 
    xmlns="http://www.w3.org/2000/svg" width="375.000000pt" height="533.000000pt" viewBox="0 0 375.000000 533.000000" preserveAspectRatio="xMidYMid meet">

    <g transform="translate(0.000000,533.000000) scale(0.100000,-0.100000)" fill="#111111" stroke="none">
        <path d="M2038 5113 c-28 -33 -78 -136 -78 -161 0 -65 -74 -141 -124 -128 -24
6 -40 31 -31 46 2 4 18 10 35 14 38 7 90 57 90 85 0 33 -34 45 -76 25 -33 -16
-58 -47 -94 -118 -16 -30 -45 -54 -55 -44 -3 3 0 26 7 51 9 37 9 48 -1 61 -19
23 -55 20 -89 -9 -29 -24 -30 -24 -35 -5 -8 30 -36 25 -43 -7 -10 -45 -47
-133 -61 -145 -9 -7 -17 -7 -29 3 -13 11 -15 25 -10 76 5 51 4 63 -8 63 -19 0
-26 -22 -26 -89 0 -71 22 -99 63 -80 13 6 30 22 36 35 6 13 17 24 25 24 8 0
24 16 36 35 52 84 117 105 100 31 -4 -18 -3 -41 2 -50 12 -21 46 -21 70 1 17
15 20 15 43 -7 29 -27 78 -24 124 9 l29 21 16 -25 c20 -30 40 -31 81 -6 22 13
37 16 54 9 17 -6 31 -4 48 8 23 15 26 14 47 -5 27 -25 44 -26 74 -5 21 14 23
14 31 -10 13 -33 43 -41 86 -20 47 22 56 37 11 19 -31 -13 -37 -13 -50 0 -17
17 -9 59 20 102 14 22 21 25 60 20 24 -2 44 -1 44 4 0 5 -10 9 -22 9 -13 0
-30 4 -38 10 -12 7 -9 15 16 47 41 52 48 73 25 73 -12 0 -35 -21 -57 -52 -21
-29 -44 -57 -51 -61 -8 -5 -11 -12 -8 -18 10 -16 -38 -90 -69 -106 -40 -21
-55 -3 -30 34 34 51 44 80 31 97 -41 52 -153 -4 -190 -96 -11 -26 -24 -39 -42
-44 -44 -11 -56 26 -32 96 11 31 18 36 62 46 l50 12 -42 1 c-50 1 -52 9 -18
70 35 61 31 97 -7 54z m-138 -145 c0 -16 -51 -68 -67 -68 -21 0 -15 22 14 52
28 29 53 37 53 16z m331 -4 c11 -14 6 -23 -38 -65 -48 -46 -93 -64 -93 -38 0
23 44 81 74 100 38 23 40 23 57 3z"/>
        <path d="M1283 5044 c-4 -10 0 -22 9 -28 39 -29 52 -99 37 -197 -14 -94 -42
-162 -66 -157 -22 4 -35 53 -27 110 7 58 -2 88 -25 88 -16 0 -19 -11 -23 -82
-6 -95 -26 -161 -49 -166 -23 -4 -29 18 -39 134 -13 166 -58 233 -129 193 -49
-27 -61 -129 -16 -129 11 0 13 11 8 48 -4 37 -2 51 11 61 44 37 83 -71 88
-237 2 -82 12 -101 54 -102 22 0 57 33 68 64 6 17 8 18 24 2 24 -21 55 -20 74
2 47 52 78 160 78 267 0 69 -9 103 -35 128 -21 21 -34 21 -42 1z"/>
        <path d="M1422 5008 c-8 -8 -8 -15 -1 -24 14 -17 39 -6 39 17 0 21 -20 25 -38
7z"/>
        <path d="M2507 5003 c-17 -17 -6 -34 20 -31 36 4 45 38 10 38 -13 0 -27 -3
-30 -7z"/>
        <path d="M2641 4904 c-12 -15 -32 -32 -44 -38 -12 -7 -29 -27 -38 -46 -21 -45
-52 -73 -76 -68 -27 5 -27 34 1 92 33 68 34 91 1 68 -47 -32 -75 -133 -49
-170 19 -28 44 -28 78 -1 l27 21 20 -21 c24 -26 51 -21 90 15 14 13 36 24 50
24 14 0 31 6 38 13 11 10 13 6 8 -23 -3 -19 -7 -41 -9 -49 -7 -31 30 -22 51
12 30 50 71 87 94 87 18 0 19 -5 15 -47 -7 -64 -2 -73 37 -73 27 0 39 7 59 33
15 19 26 40 26 48 0 7 -11 -3 -25 -24 -30 -43 -72 -53 -61 -14 16 54 18 88 6
102 -19 23 -62 18 -92 -10 -33 -30 -38 -31 -38 -5 0 28 -28 25 -56 -5 -30 -33
-59 -34 -49 -2 4 12 8 40 9 62 1 36 -2 40 -25 43 -19 2 -33 -5 -48 -24z m59
-20 c0 -29 -16 -64 -30 -64 -11 0 -14 73 -3 83 15 16 33 5 33 -19z m-59 -68
c15 -17 10 -45 -11 -56 -41 -22 -53 16 -23 73 15 28 18 29 21 12 2 -11 8 -24
13 -29z"/>
        <path d="M667 4775 c-76 -27 -127 -59 -127 -81 0 -18 3 -18 42 6 56 34 62 29
81 -67 10 -49 22 -121 27 -162 l10 -74 -37 -32 c-21 -18 -35 -37 -30 -41 8 -9
162 63 179 84 17 20 4 23 -35 7 -20 -8 -38 -15 -40 -15 -2 0 -7 29 -10 64 -3
35 -17 109 -32 164 -14 55 -25 103 -25 106 0 3 18 15 40 26 22 11 40 25 40 30
0 14 -5 13 -83 -15z"/>
        <path d="M900 4618 c-11 -18 -20 -37 -20 -43 0 -5 -7 -2 -15 9 -27 36 -42 13
-37 -55 7 -105 31 -106 58 -3 8 32 21 65 29 73 19 20 45 6 45 -24 0 -37 17
-65 40 -65 27 0 60 35 60 63 0 22 -1 22 -13 -3 -7 -14 -20 -26 -30 -28 -14 -3
-17 4 -17 36 0 73 -64 98 -100 40z"/>
        <path d="M1690 4604 c-19 -9 -64 -24 -99 -35 -85 -24 -114 -45 -255 -180 -65
-63 -147 -134 -182 -158 -55 -38 -67 -52 -85 -100 -58 -156 -68 -254 -75 -711
-2 -170 -1 -190 21 -260 14 -41 35 -111 48 -155 40 -129 129 -317 161 -336 16
-9 36 -31 46 -47 26 -43 42 -49 155 -57 214 -14 375 -46 375 -73 0 -5 -17 -21
-37 -34 -89 -59 -87 -58 -376 -71 -357 -15 -862 -16 -877 -1 -8 8 -7 20 5 46
15 29 24 36 68 45 29 6 72 18 97 28 28 10 98 20 185 25 77 5 178 14 225 20 47
5 91 10 98 10 6 0 12 9 12 20 0 17 -7 20 -42 20 -24 -1 -74 -5 -113 -10 -38
-6 -131 -14 -205 -19 -91 -6 -154 -16 -194 -30 -101 -36 -111 -33 -210 65 -71
70 -94 87 -124 91 -82 11 -103 -76 -53 -226 28 -84 31 -106 31 -217 0 -71 4
-125 10 -129 18 -11 11 -22 -35 -51 -57 -35 -115 -117 -115 -161 0 -42 39 -86
95 -110 25 -10 45 -20 45 -23 0 -3 -18 -18 -40 -33 -22 -16 -42 -38 -46 -51
-3 -12 4 -54 14 -94 16 -58 17 -72 6 -72 -11 0 -14 -18 -14 -72 0 -40 -7 -98
-15 -128 -24 -91 -20 -127 30 -229 25 -51 59 -113 76 -137 39 -57 81 -151 103
-229 20 -71 38 -88 72 -73 28 13 89 99 137 193 20 40 63 100 101 140 36 39 68
79 72 91 3 12 20 28 37 36 59 28 94 67 129 141 35 73 94 151 107 142 4 -2 13
-41 21 -87 9 -63 10 -132 4 -283 -8 -183 -11 -203 -31 -231 -26 -36 -69 -59
-149 -80 -71 -18 -114 -41 -114 -60 0 -27 29 -27 105 0 104 37 247 45 394 21
61 -10 119 -24 128 -31 16 -12 14 -13 -17 -6 -19 4 -141 7 -270 7 -219 0 -237
-1 -270 -21 -24 -14 -35 -27 -35 -44 0 -29 32 -49 136 -87 64 -23 94 -27 214
-31 218 -6 317 16 398 92 50 47 31 126 -38 150 -39 14 -211 46 -247 46 -21 0
-38 -4 -38 -10 0 -6 -37 -10 -90 -10 -49 0 -90 3 -90 6 0 3 12 26 28 52 27 47
27 48 31 262 3 218 -7 323 -36 382 -7 16 -13 60 -13 107 0 78 1 81 34 114 29
30 42 35 101 41 71 7 146 39 179 75 12 13 19 35 19 63 0 35 -6 47 -36 75 -45
41 -65 41 -162 2 -76 -30 -112 -36 -337 -54 -43 -3 -78 -2 -78 2 0 4 19 16 41
26 22 11 55 34 74 52 29 26 35 40 35 72 0 55 -44 114 -101 137 -53 21 -233 32
-305 19 l-52 -10 -6 51 c-3 28 -6 68 -6 89 l0 39 63 -9 c85 -11 481 -9 772 5
354 17 365 18 438 62 l62 38 3 -48 c5 -78 -50 -329 -88 -402 -18 -35 -38 -66
-44 -70 -19 -13 -139 -51 -196 -62 -39 -8 -56 -16 -58 -29 -3 -14 4 -17 35
-17 50 0 79 -21 87 -64 12 -62 -5 -82 -108 -132 -101 -48 -151 -89 -191 -158
-24 -40 -25 -51 -26 -185 0 -79 2 -145 5 -148 14 -14 36 9 36 37 0 16 5 30 12
30 6 0 50 -38 97 -84 153 -149 254 -243 336 -308 44 -35 109 -99 145 -143 35
-44 96 -111 134 -150 67 -68 110 -127 151 -209 27 -52 149 -176 206 -209 34
-20 74 -31 163 -43 117 -16 118 -16 139 5 21 21 21 21 3 108 -22 106 -77 271
-105 317 -29 46 -27 72 15 178 20 51 40 117 45 147 5 31 9 183 9 339 0 229 3
282 13 282 8 0 22 9 33 21 16 18 20 40 23 151 2 109 0 140 -17 196 -14 45 -22
104 -25 180 l-4 113 31 -30 c17 -16 45 -36 62 -45 21 -10 40 -32 54 -63 60
-129 78 -158 126 -201 53 -49 173 -108 199 -98 32 12 12 32 -65 64 -90 38
-149 93 -182 170 -49 115 -62 135 -102 161 -23 14 -60 42 -83 61 l-41 35 32
55 c18 30 54 90 79 133 26 44 51 95 56 115 5 21 11 127 13 237 2 174 1 200
-13 203 -24 4 -39 -102 -39 -282 l0 -157 -59 -102 c-33 -56 -74 -126 -92 -155
-18 -29 -42 -74 -54 -100 -12 -26 -38 -71 -56 -99 -19 -29 -49 -79 -67 -110
-48 -85 -68 -93 -220 -93 -116 0 -135 3 -221 31 -52 18 -122 49 -154 70 -33
22 -66 39 -73 39 -25 0 -23 18 6 71 19 36 35 87 46 151 16 89 19 97 38 93 38
-7 150 -23 213 -30 44 -5 76 -2 110 8 26 8 70 18 96 21 27 3 70 15 95 26 l47
21 -40 -42 c-22 -23 -59 -54 -83 -69 -42 -27 -43 -28 -172 -22 -125 5 -130 4
-130 -15 0 -18 9 -21 98 -26 164 -11 174 -10 227 25 52 34 145 123 145 138 0
5 -8 13 -17 18 -15 9 -14 14 11 47 25 32 31 35 59 30 45 -10 53 -20 33 -47 -9
-13 -28 -38 -41 -57 -32 -43 -34 -101 -5 -101 13 0 20 7 20 20 0 27 22 70 49
94 12 11 28 42 36 69 32 109 11 157 -70 157 -34 0 -49 5 -63 21 -72 90 -98
109 -170 124 -42 9 -55 -17 -23 -46 24 -23 27 -51 7 -68 -18 -15 -22 -8 -30
54 -4 28 -16 83 -27 123 -29 108 -26 146 14 185 60 60 61 61 95 28 l31 -29
-39 -6 c-50 -8 -69 -36 -46 -72 9 -13 28 -27 42 -30 38 -10 139 3 177 22 40
20 87 64 87 80 0 25 -22 26 -48 1 -46 -42 -86 -57 -154 -56 -59 1 -61 2 -28
11 113 32 141 42 145 49 9 14 -7 40 -21 35 -49 -20 -47 -20 -35 3 7 12 9 26 6
31 -4 6 19 10 59 10 57 0 66 3 66 18 0 15 -15 19 -107 29 l-108 11 -58 -30
c-31 -17 -75 -51 -98 -75 l-41 -44 5 -72 c2 -40 14 -116 25 -170 24 -108 28
-167 11 -167 -6 0 -8 -9 -4 -21 9 -26 -20 -59 -51 -59 -13 0 -43 11 -67 23
-24 13 -54 26 -65 29 -25 7 -62 64 -62 96 0 21 3 22 34 17 19 -4 36 -2 40 3
10 17 -5 43 -32 53 -35 13 -72 -15 -90 -67 -8 -21 -21 -59 -30 -84 l-16 -45
-8 44 c-4 24 -13 50 -20 59 -36 43 -180 77 -377 87 -140 8 -148 10 -166 45 -8
16 -28 36 -43 46 -34 20 -132 225 -163 344 -11 41 -29 99 -40 128 -10 29 -19
57 -19 63 0 14 30 -3 64 -38 28 -27 106 -174 106 -199 0 -6 6 -17 14 -23 25
-21 52 3 65 56 7 26 26 69 42 94 35 55 37 101 10 179 -12 34 -20 93 -23 153
l-4 99 46 23 c55 28 73 47 100 108 24 54 75 117 96 117 7 0 35 -19 62 -43 92
-82 115 -95 191 -111 41 -9 104 -30 140 -47 54 -26 73 -30 117 -27 71 6 115
37 214 152 45 52 94 99 109 106 15 6 52 10 81 8 52 -3 53 -4 89 -59 20 -31 46
-72 58 -90 13 -19 23 -48 23 -66 0 -18 10 -43 24 -60 35 -43 43 -63 51 -128 5
-39 16 -73 32 -97 14 -21 28 -58 31 -84 4 -38 8 -45 23 -41 25 7 24 -8 -2
-100 -12 -46 -19 -94 -17 -130 3 -50 6 -58 23 -58 18 0 21 9 26 80 3 44 13
107 22 139 11 40 19 120 24 244 5 161 4 186 -9 196 -12 9 -17 38 -20 126 l-5
115 -46 80 c-28 47 -47 92 -47 110 0 32 -33 95 -50 95 -5 0 -13 12 -16 28 -17
69 -88 151 -240 275 -74 61 -210 130 -241 122 -15 -3 -45 6 -83 25 -33 17 -88
37 -122 45 -85 20 -262 19 -308 -1z m393 -76 c120 -58 129 -66 171 -167 44
-106 90 -174 114 -169 32 7 18 67 -40 173 -31 55 -54 101 -53 103 14 16 272
-187 316 -250 l20 -28 -45 6 c-60 9 -96 -1 -96 -26 0 -24 26 -36 91 -45 56 -7
125 -49 138 -84 5 -15 12 -42 15 -62 4 -20 25 -66 47 -103 l41 -68 -6 -161
c-6 -190 -14 -269 -27 -261 -5 3 -9 22 -9 42 0 56 -17 105 -50 147 -18 22 -30
50 -30 67 0 33 -21 78 -45 98 -9 8 -28 37 -42 64 -39 77 -55 94 -78 85 -11 -4
-44 -8 -74 -8 -72 -1 -101 -21 -199 -135 -82 -95 -141 -136 -193 -136 -13 0
-51 14 -83 30 -33 16 -93 37 -135 46 -81 18 -106 32 -189 106 -64 59 -95 62
-147 16 -20 -17 -52 -62 -71 -100 -30 -59 -41 -71 -86 -94 -56 -28 -101 -29
-188 -3 -47 14 -51 24 -12 34 41 10 116 61 209 142 100 87 145 111 229 125 74
11 94 3 193 -85 62 -55 134 -93 196 -102 62 -10 67 1 63 152 -3 122 -4 130
-32 170 -47 70 -97 88 -246 88 -121 0 -128 -1 -225 -39 -55 -21 -125 -48 -155
-59 -30 -12 -66 -28 -80 -38 -32 -21 -103 -33 -97 -16 2 7 36 35 75 62 39 28
102 74 139 103 39 30 102 66 148 84 74 30 89 32 196 33 116 0 117 0 190 -39
146 -76 233 -155 268 -243 14 -34 38 -44 47 -19 6 15 -24 81 -59 129 -27 39
-149 128 -238 174 l-72 38 -136 0 c-131 0 -139 -1 -216 -33 -44 -18 -111 -56
-148 -85 -38 -29 -108 -79 -155 -113 -74 -51 -87 -65 -90 -91 -2 -24 2 -34 19
-43 34 -19 113 -7 159 24 22 14 72 37 112 50 40 13 102 36 137 51 60 25 72 26
192 23 110 -3 131 -6 155 -24 59 -43 67 -65 72 -184 l5 -110 -24 0 c-41 1
-104 35 -180 100 -105 88 -119 94 -203 86 -94 -9 -154 -38 -256 -126 -122
-106 -194 -150 -243 -150 l-40 0 6 128 c6 124 28 240 59 313 11 24 38 51 84
84 38 27 116 96 174 153 129 126 159 147 243 171 36 11 74 24 84 30 11 7 70
10 163 9 144 -3 145 -3 223 -40z m-908 -974 c39 -9 75 -18 81 -20 6 -1 13 -41
17 -96 3 -54 14 -118 26 -152 12 -33 21 -66 21 -75 0 -9 -18 -51 -39 -93 l-39
-76 -37 75 c-40 81 -99 149 -139 159 -32 8 -40 53 -34 201 4 129 9 140 46 113
15 -11 59 -27 97 -36z m1654 -231 l-1 -48 -14 33 c-11 26 -12 37 -3 48 17 21
19 18 18 -33z m-422 -379 c-3 -3 -12 -4 -19 -1 -8 3 -5 6 6 6 11 1 17 -2 13
-5z m-1996 -374 l81 -79 -23 -38 c-20 -32 -24 -54 -28 -167 l-6 -131 -52 -3
-53 -3 0 128 c0 118 -3 136 -31 217 -28 82 -32 125 -12 159 10 17 46 -7 124
-83z m1987 -18 c15 -16 40 -45 55 -66 27 -34 32 -37 75 -34 45 3 47 2 50 -24
4 -32 -5 -34 -56 -16 -35 13 -35 13 -86 -43 -62 -69 -73 -75 -178 -96 -93 -19
-203 -22 -326 -9 l-83 9 7 31 c4 17 19 45 33 62 15 16 33 44 40 62 l13 32 39
-35 c22 -19 45 -35 52 -35 7 0 33 -11 59 -25 26 -14 58 -25 71 -25 33 0 106
57 114 88 3 15 21 42 39 60 23 23 34 42 34 62 0 37 14 38 48 2z m-1563 -442
c40 -19 75 -63 75 -95 0 -39 -106 -104 -171 -105 -56 0 -134 -27 -164 -57 -27
-28 -29 -28 -154 -28 -110 0 -131 3 -166 22 -23 11 -47 33 -54 46 -12 22 -11
29 7 59 46 74 133 130 244 158 108 27 327 27 383 0z m1769 -131 c3 -17 6 -44
6 -59 0 -26 -2 -28 -49 -28 l-49 0 37 59 c20 32 39 58 42 59 4 0 9 -14 13 -31z
m-1245 -103 c7 -8 11 -27 9 -43 -4 -40 -67 -71 -180 -89 -50 -8 -104 -22 -120
-30 -27 -14 -100 -41 -350 -129 -84 -30 -118 -36 -258 -47 -110 -8 -164 -8
-171 -1 -11 11 -39 108 -39 138 0 23 51 61 100 75 18 5 69 14 114 20 45 7 95
17 111 25 18 7 134 19 287 29 257 16 281 20 413 69 41 15 61 11 84 -17z m365
-54 c9 -32 16 -65 16 -73 0 -34 122 -236 230 -381 38 -51 84 -122 102 -158 30
-61 76 -137 153 -255 56 -84 123 -218 130 -260 11 -56 27 -83 80 -135 30 -29
61 -74 86 -126 38 -80 116 -341 104 -352 -12 -12 -202 16 -242 36 -71 37 -164
138 -231 254 -40 69 -76 118 -103 140 -23 18 -78 78 -122 133 -95 118 -81 104
-187 190 -47 38 -116 99 -155 136 -182 176 -272 257 -293 263 -21 7 -22 13
-22 93 0 71 4 92 22 122 34 55 75 87 174 135 51 24 99 55 108 67 24 35 21 120
-5 153 -16 20 -17 27 -7 31 42 16 125 43 134 44 6 0 19 -25 28 -57z m107 10
c59 -42 57 -34 42 -157 l-8 -70 -37 59 c-21 33 -42 84 -49 115 -6 31 -15 64
-20 74 -16 29 13 21 72 -21z m780 -22 c31 -57 23 -320 -9 -320 -3 0 -14 7 -24
17 -10 9 -39 21 -65 28 l-47 12 3 56 c2 40 -3 66 -18 96 -12 22 -21 48 -21 58
1 46 71 93 134 90 22 -2 33 -10 47 -37z m-582 -54 c24 -9 68 -16 98 -16 l54 0
-6 -33 c-6 -29 -3 -35 19 -45 36 -16 23 -40 -22 -44 -30 -2 -38 -8 -40 -25 -3
-22 0 -23 52 -23 46 0 57 -4 66 -21 17 -31 0 -45 -120 -95 -24 -11 -57 -30
-72 -43 -27 -22 -30 -22 -52 -7 -16 10 -36 45 -56 96 -42 110 -45 129 -30 214
15 83 6 79 109 42z m346 -28 c3 -7 9 -50 13 -96 8 -79 7 -83 -13 -88 -55 -14
-108 52 -121 150 l-7 46 62 0 c40 0 63 -4 66 -12z m-1343 -195 l4 -78 -38 -40
c-21 -23 -57 -79 -81 -125 -46 -92 -65 -110 -146 -140 -41 -15 -68 -18 -116
-13 -53 5 -68 11 -105 43 l-44 38 10 48 c9 45 11 48 54 60 69 20 218 44 277
44 50 0 53 1 53 26 l0 26 -72 -7 c-96 -8 -227 -32 -276 -49 -37 -13 -42 -13
-57 4 -10 11 -48 31 -86 45 -105 41 -103 64 6 66 33 0 85 4 115 9 30 5 93 14
140 21 47 6 132 28 190 49 58 21 112 40 120 43 44 16 48 10 52 -70z m1473 -42
c79 -22 74 2 72 -367 l-2 -329 -37 -91 c-21 -50 -38 -96 -38 -102 0 -23 -23
-23 -47 -1 -31 30 -53 71 -53 102 0 32 -80 184 -178 338 -44 69 -89 147 -101
174 -12 27 -33 63 -46 81 -14 18 -25 37 -25 42 0 19 61 61 118 82 31 11 74 35
95 53 37 31 42 32 120 31 45 -1 100 -7 122 -13z m-2235 -19 c0 -38 22 -57 116
-95 l79 -33 3 -76 3 -77 50 -45 c42 -38 58 -46 105 -52 31 -3 66 -6 80 -6 13
0 24 -3 24 -5 0 -3 -27 -34 -60 -70 -33 -35 -74 -92 -91 -126 -35 -71 -101
-177 -110 -177 -3 0 -23 45 -44 101 -21 55 -48 115 -59 132 -54 80 -116 197
-130 244 -13 47 -13 60 0 108 7 31 14 90 14 130 0 43 4 75 10 75 6 0 10 -13
10 -28z m1277 -814 c22 -18 15 -45 -18 -72 -68 -57 -80 -60 -289 -64 l-196 -4
-82 32 c-45 18 -82 36 -82 41 0 22 202 28 550 16 61 -2 65 -1 68 21 2 13 -2
30 -10 39 -12 15 -10 16 17 9 16 -4 36 -12 42 -18z"/>
        <path d="M2209 3422 c-15 -9 -46 -32 -69 -50 -67 -51 -100 -55 -333 -48 -195
6 -208 5 -205 -12 4 -24 63 -30 283 -31 198 -1 226 6 296 66 55 48 71 53 183
53 99 0 106 1 106 20 0 19 -7 20 -117 20 -96 0 -123 -3 -144 -18z"/>
        <path d="M2185 3284 c-44 -25 -92 -48 -108 -51 -19 -4 -27 -11 -25 -22 6 -29
68 -17 154 33 56 31 93 46 118 46 29 0 36 4 36 20 0 17 -7 20 -47 20 -38 -1
-65 -10 -128 -46z"/>
        <path d="M2372 3131 c-51 -38 -101 -73 -113 -76 -33 -11 -15 -30 27 -29 28 1
61 15 115 48 64 40 89 49 154 58 59 8 87 7 116 -2 41 -14 73 -8 67 13 -3 6
-18 16 -34 21 -16 5 -43 15 -61 22 -17 8 -65 14 -105 14 l-75 0 -91 -69z"/>
        <path d="M1690 3070 c-65 -12 -87 -22 -168 -80 -50 -35 -72 -57 -70 -68 5 -25
56 -18 185 23 98 32 119 35 225 35 111 0 118 1 118 20 0 11 -4 20 -10 20 -5 0
-10 7 -10 15 0 9 -12 20 -27 26 -38 14 -187 20 -243 9z m85 -50 c-44 -4 -100
-15 -124 -24 -53 -20 -57 -20 -41 -1 19 23 68 33 160 33 l85 -1 -80 -7z"/>
        <path d="M1691 2914 c-23 -8 -65 -29 -92 -45 -42 -27 -47 -33 -37 -49 9 -14
16 -16 30 -9 12 6 18 6 18 -1 0 -14 149 -13 205 1 25 6 56 8 71 5 25 -7 25 -8
9 -26 -24 -27 -99 -50 -162 -50 -51 0 -54 -2 -51 -22 8 -57 236 1 266 67 11
23 9 29 -13 50 -19 20 -34 25 -75 25 -37 0 -50 4 -47 13 7 21 68 9 145 -29 53
-26 77 -33 85 -25 16 16 -15 45 -86 77 -77 35 -196 43 -266 18z m17 -62 c2 -8
-8 -12 -30 -12 -31 1 -32 1 -13 15 21 17 37 15 43 -3z"/>
        <path d="M2395 2021 c-4 -14 -120 -102 -153 -117 -8 -3 12 -34 22 -34 7 0 45
23 85 51 73 52 104 95 79 111 -20 12 -26 10 -33 -11z"/>
    </g>
</svg>
